<svg xmlns="http://www.w3.org/2000/svg" width="192" height="152" viewBox="0 0 192 152" fill="none"><path d="M150.348 115.079L161.254 119.047L161.352 134.008L168.105 128.434L172.286 136.466L192 101.725L150.348 115.079Z" fill="#53BB9F"></path><path d="M161.254 119.48C161.1 119.48 160.961 119.396 160.877 119.256C160.765 119.047 160.835 118.781 161.045 118.67L191.063 101.99C191.273 101.879 191.539 101.948 191.651 102.158C191.762 102.368 191.692 102.633 191.483 102.745L161.464 119.424C161.394 119.452 161.324 119.48 161.254 119.48Z" fill="#151515"></path><path d="M161.352 134.441C161.282 134.441 161.226 134.427 161.17 134.399C160.961 134.301 160.863 134.036 160.975 133.826L166.134 123.153C166.232 122.944 166.497 122.846 166.707 122.958C166.917 123.056 167.015 123.321 166.903 123.531L161.744 134.203C161.66 134.357 161.506 134.441 161.352 134.441Z" fill="#151515"></path><path d="M166.511 123.768C166.385 123.768 166.274 123.712 166.176 123.615C166.022 123.433 166.05 123.168 166.232 123.014L190.993 102.046C191.175 101.892 191.441 101.92 191.595 102.102C191.748 102.284 191.72 102.549 191.539 102.703L166.777 123.671C166.707 123.726 166.609 123.768 166.511 123.768Z" fill="#151515"></path><path d="M168.105 128.867C167.923 128.867 167.756 128.755 167.7 128.559L166.106 123.461C166.036 123.237 166.162 122.986 166.385 122.916C166.623 122.846 166.861 122.972 166.931 123.195L168.525 128.294C168.595 128.517 168.469 128.769 168.245 128.839C168.189 128.853 168.147 128.867 168.105 128.867Z" fill="#151515"></path><path d="M123.685 152C122.497 152 121.35 151.958 120.232 151.888C119.994 151.874 119.812 151.665 119.826 151.427C119.84 151.19 120.078 151.022 120.288 151.022C121.392 151.092 122.539 151.162 123.657 151.134L123.699 152C123.699 152 123.699 152 123.685 152ZM127.153 151.888C126.929 151.888 126.733 151.707 126.719 151.483C126.705 151.246 126.887 151.036 127.125 151.022C128.243 150.952 129.39 150.855 130.536 150.715C130.76 150.687 130.984 150.855 131.012 151.092C131.04 151.329 130.872 151.539 130.634 151.567C129.474 151.707 128.313 151.804 127.181 151.874C127.167 151.888 127.153 151.888 127.153 151.888ZM116.848 151.539C116.834 151.539 116.806 151.539 116.792 151.539C115.646 151.385 114.499 151.19 113.381 150.952C113.143 150.896 113.003 150.673 113.045 150.435C113.101 150.198 113.325 150.058 113.563 150.1C114.667 150.338 115.786 150.533 116.918 150.687C117.156 150.715 117.324 150.938 117.282 151.176C117.24 151.385 117.058 151.539 116.848 151.539ZM133.99 151.092C133.78 151.092 133.598 150.938 133.57 150.729C133.528 150.491 133.682 150.268 133.92 150.226C135.052 150.03 136.185 149.793 137.261 149.541C137.499 149.486 137.723 149.625 137.779 149.863C137.835 150.1 137.695 150.324 137.457 150.38C136.353 150.645 135.206 150.882 134.06 151.078C134.046 151.092 134.018 151.092 133.99 151.092ZM110.123 150.114C110.081 150.114 110.039 150.114 109.997 150.1C108.893 149.779 107.788 149.402 106.711 148.983C106.488 148.899 106.376 148.647 106.46 148.424C106.544 148.2 106.795 148.089 107.019 148.172C108.068 148.578 109.158 148.941 110.235 149.262C110.459 149.332 110.598 149.569 110.528 149.793C110.487 149.988 110.319 150.114 110.123 150.114ZM140.673 149.472C140.491 149.472 140.324 149.36 140.268 149.178C140.198 148.955 140.323 148.703 140.547 148.633C141.638 148.284 142.714 147.893 143.749 147.474C143.973 147.39 144.224 147.488 144.308 147.711C144.392 147.935 144.294 148.186 144.071 148.27C143.022 148.703 141.917 149.094 140.799 149.444C140.757 149.458 140.715 149.472 140.673 149.472ZM103.719 147.642C103.649 147.642 103.594 147.628 103.538 147.6C102.503 147.097 101.468 146.552 100.476 145.965C100.266 145.84 100.196 145.588 100.322 145.379C100.448 145.169 100.713 145.099 100.909 145.225C101.888 145.798 102.894 146.342 103.915 146.831C104.125 146.929 104.223 147.195 104.111 147.404C104.041 147.558 103.887 147.642 103.719 147.642ZM147.049 146.887C146.895 146.887 146.741 146.803 146.671 146.65C146.559 146.44 146.643 146.175 146.867 146.077C147.888 145.56 148.88 145.001 149.845 144.415C150.041 144.289 150.306 144.359 150.432 144.554C150.558 144.75 150.488 145.015 150.292 145.141C149.314 145.742 148.293 146.315 147.258 146.831C147.175 146.873 147.119 146.887 147.049 146.887ZM97.8051 144.177C97.7212 144.177 97.6373 144.149 97.5534 144.093C96.6167 143.437 95.6939 142.738 94.7851 141.998C94.6033 141.844 94.5753 141.579 94.7291 141.397C94.8829 141.216 95.1486 141.188 95.3303 141.341C96.2112 142.068 97.134 142.752 98.0428 143.395C98.2385 143.535 98.2805 143.8 98.1546 143.996C98.0707 144.107 97.9309 144.177 97.8051 144.177ZM152.907 143.283C152.781 143.283 152.641 143.227 152.557 143.116C152.418 142.92 152.46 142.655 152.641 142.515C153.55 141.83 154.445 141.118 155.284 140.364C155.466 140.21 155.731 140.224 155.885 140.392C156.039 140.573 156.025 140.839 155.857 140.992C155.004 141.76 154.096 142.501 153.159 143.199C153.089 143.255 152.991 143.283 152.907 143.283ZM92.4781 139.833C92.3662 139.833 92.2683 139.791 92.1845 139.721C91.3595 138.939 90.5346 138.115 89.7517 137.262C89.5839 137.095 89.5978 136.815 89.7796 136.648C89.9614 136.48 90.227 136.494 90.3948 136.676C91.1778 137.514 91.9747 138.338 92.7997 139.106C92.9674 139.274 92.9814 139.539 92.8137 139.721C92.7158 139.791 92.6039 139.833 92.4781 139.833ZM158.024 138.687C157.912 138.687 157.815 138.645 157.731 138.576C157.563 138.408 157.549 138.142 157.703 137.961C158.472 137.137 159.213 136.257 159.912 135.363C160.052 135.181 160.331 135.139 160.513 135.279C160.695 135.418 160.737 135.698 160.597 135.879C159.884 136.787 159.129 137.681 158.346 138.534C158.262 138.645 158.136 138.687 158.024 138.687ZM87.8082 134.79C87.6823 134.79 87.5565 134.734 87.4726 134.636C86.7596 133.756 86.0465 132.834 85.3474 131.884C85.2076 131.689 85.2495 131.423 85.4453 131.284C85.641 131.144 85.9067 131.186 86.0465 131.381C86.7316 132.317 87.4307 133.225 88.1438 134.091C88.2976 134.273 88.2696 134.552 88.0878 134.692C87.99 134.748 87.8921 134.79 87.8082 134.79ZM162.233 133.239C162.149 133.239 162.079 133.211 161.995 133.169C161.799 133.044 161.729 132.778 161.869 132.569C162.484 131.619 163.058 130.627 163.575 129.621C163.687 129.412 163.953 129.328 164.162 129.44C164.372 129.551 164.456 129.803 164.344 130.026C163.813 131.06 163.226 132.066 162.61 133.044C162.512 133.169 162.373 133.239 162.233 133.239ZM83.7395 129.216C83.5997 129.216 83.4599 129.146 83.376 129.021C82.7608 128.071 82.1456 127.079 81.5444 126.073C81.4186 125.863 81.4884 125.598 81.6982 125.486C81.9079 125.361 82.1736 125.43 82.2854 125.64C82.8727 126.632 83.4738 127.624 84.089 128.56C84.2149 128.755 84.159 129.02 83.9632 129.16C83.8933 129.188 83.8234 129.216 83.7395 129.216ZM165.393 127.121C165.337 127.121 165.281 127.107 165.239 127.093C165.015 127.009 164.917 126.757 165.001 126.534C165.686 124.83 165.994 123.642 166.078 123.321C166.134 123.098 166.371 122.944 166.595 123C166.833 123.056 166.973 123.293 166.917 123.517C166.833 123.852 166.511 125.081 165.812 126.855C165.728 127.023 165.574 127.121 165.393 127.121ZM80.2441 123.265C80.0903 123.265 79.9365 123.181 79.8666 123.042C79.3353 122.05 78.818 121.002 78.3006 119.954C78.2028 119.745 78.2866 119.479 78.4964 119.382C78.7061 119.284 78.9717 119.368 79.0696 119.577C79.573 120.625 80.0903 121.659 80.6216 122.637C80.7335 122.846 80.6496 123.111 80.4398 123.223C80.3839 123.251 80.314 123.265 80.2441 123.265ZM77.238 117.063C77.0702 117.063 76.9164 116.965 76.8465 116.811C76.3851 115.75 75.9377 114.688 75.5043 113.626C75.4204 113.403 75.5182 113.151 75.742 113.068C75.9657 112.984 76.2174 113.082 76.3013 113.305C76.7207 114.367 77.1681 115.414 77.6295 116.462C77.7274 116.686 77.6295 116.937 77.4058 117.035C77.3638 117.049 77.2939 117.063 77.238 117.063ZM74.6654 110.679C74.4836 110.679 74.3298 110.567 74.2599 110.399C73.8544 109.31 73.4769 108.22 73.0994 107.145C73.0295 106.921 73.1414 106.67 73.3651 106.6C73.5888 106.516 73.8404 106.642 73.9104 106.865C74.2739 107.941 74.6514 109.03 75.0569 110.106C75.1408 110.33 75.0289 110.581 74.8052 110.665C74.7772 110.665 74.7213 110.679 74.6654 110.679ZM72.4563 104.141C72.2745 104.141 72.1067 104.029 72.0508 103.834C71.7013 102.716 71.3797 101.613 71.0581 100.523C70.9882 100.3 71.128 100.062 71.3517 99.9923C71.5754 99.9224 71.8131 100.062 71.883 100.286C72.1906 101.375 72.5262 102.479 72.8757 103.582C72.9456 103.806 72.8198 104.057 72.5961 104.127C72.5401 104.141 72.4982 104.141 72.4563 104.141ZM70.5408 97.5197C70.345 97.5197 70.1772 97.394 70.1213 97.1984C69.8137 96.0669 69.5341 94.9494 69.2545 93.8458C69.1985 93.6083 69.3384 93.3848 69.5761 93.3289C69.8137 93.2731 70.0374 93.4127 70.0934 93.6362C70.359 94.7259 70.6526 95.8434 70.9462 96.9749C71.0022 97.1984 70.8763 97.4359 70.6386 97.5058C70.6107 97.5058 70.5827 97.5197 70.5408 97.5197ZM68.877 90.8145C68.6812 90.8145 68.4994 90.6748 68.4575 90.4792C68.1918 89.3197 67.9402 88.2022 67.7025 87.1126C67.6465 86.8751 67.8004 86.6516 68.0381 86.5957C68.2618 86.5398 68.4995 86.6935 68.5554 86.931C68.7931 88.0206 69.0447 89.1381 69.3104 90.2976C69.3663 90.5351 69.2125 90.7586 68.9888 90.8145C68.9469 90.8145 68.9049 90.8145 68.877 90.8145ZM67.3949 84.0812C67.1991 84.0812 67.0174 83.9416 66.9754 83.732C66.7377 82.5726 66.5001 81.455 66.2903 80.3933C66.2484 80.1559 66.3882 79.9044 66.6259 79.8625C66.8636 79.8206 67.0873 79.9463 67.1293 80.1698L67.1432 80.2118C67.3669 81.2734 67.5907 82.377 67.8283 83.5504C67.8703 83.7879 67.7304 84.0114 67.4928 84.0533C67.4508 84.0813 67.4228 84.0812 67.3949 84.0812ZM65.9967 77.3201C65.801 77.3201 65.6192 77.1804 65.5773 76.9848C65.3116 75.7416 65.0739 74.6101 64.8362 73.6183C64.7803 73.3808 64.9201 73.1572 65.1578 73.1014C65.3955 73.0455 65.6192 73.1852 65.6751 73.4227C65.9128 74.4145 66.1645 75.56 66.4302 76.8033C66.4721 77.0407 66.3323 77.2642 66.0946 77.3201C66.0526 77.3061 66.0247 77.3201 65.9967 77.3201ZM47.0096 75.2247C46.7858 75.2247 46.6041 75.0571 46.5761 74.8336C46.5621 74.5961 46.7299 74.3866 46.9676 74.3726C47.8624 74.2888 48.7014 73.716 49.3865 72.6823C49.5263 72.4867 49.7919 72.4309 49.9877 72.5706C50.1834 72.7103 50.2393 72.9757 50.0995 73.1712C49.0369 74.7498 47.8484 75.1688 47.0375 75.2387C47.0375 75.2247 47.0235 75.2247 47.0096 75.2247ZM43.9895 73.8417C43.8637 73.8417 43.7518 73.7859 43.6679 73.6881C42.829 72.7382 42.3537 71.5089 42.3537 70.3215L42.7871 70.2516L43.2205 70.2656C43.2205 71.2854 43.626 72.3051 44.325 73.1154C44.4788 73.297 44.4649 73.5624 44.2831 73.716C44.1852 73.7998 44.0874 73.8417 43.9895 73.8417ZM64.277 70.6288C64.1092 70.6288 63.9414 70.531 63.8715 70.3494C63.8156 70.2237 63.7736 70.1119 63.7177 70.0002C63.2983 69.0922 62.7669 68.254 62.1657 67.5276C62.0119 67.346 62.0399 67.0666 62.2217 66.9269C62.4034 66.7733 62.683 66.8012 62.8229 66.9828C63.466 67.7651 64.0253 68.6591 64.4867 69.637C64.5426 69.7627 64.5985 69.8884 64.6545 70.0421C64.7384 70.2656 64.6265 70.5171 64.4168 70.6009C64.3888 70.6148 64.3329 70.6288 64.277 70.6288ZM51.1062 70.1958C51.0642 70.1958 51.0223 70.1958 50.9944 70.1818C50.7706 70.1119 50.6308 69.8745 50.7007 69.651C50.9664 68.6871 51.1901 67.5695 51.3439 66.3402C51.3719 66.1028 51.5956 65.9491 51.8193 65.9631C52.057 65.991 52.2247 66.2145 52.1968 66.438C52.029 67.7092 51.8053 68.8687 51.5257 69.8745C51.4697 70.07 51.3019 70.1958 51.1062 70.1958ZM44.1433 67.6115C44.0454 67.6115 43.9476 67.5835 43.8637 67.5136C43.6819 67.36 43.6539 67.0946 43.8077 66.913C44.5348 66.0469 45.4716 65.2786 46.5761 64.636C46.7859 64.5103 47.0375 64.5801 47.1633 64.7896C47.2892 64.9992 47.2053 65.2646 47.0096 65.3764C45.9889 65.9631 45.136 66.6615 44.4789 67.4578C44.395 67.5556 44.2692 67.6115 44.1433 67.6115ZM59.9426 65.4183C59.8587 65.4183 59.7888 65.3903 59.7189 65.3484C58.7961 64.7757 57.7755 64.3287 56.6849 64.0493C56.4612 63.9934 56.3214 63.7559 56.3773 63.5184C56.4332 63.2949 56.6709 63.1552 56.9086 63.2111C58.083 63.5184 59.1876 63.9934 60.1803 64.622C60.3761 64.7477 60.446 65.0132 60.3201 65.2087C60.2223 65.3484 60.0825 65.4183 59.9426 65.4183ZM49.9737 64.1331C49.7779 64.1331 49.6102 64.0074 49.5542 63.8118C49.4983 63.5883 49.6241 63.3508 49.8618 63.281C50.4351 63.1273 51.0223 63.0155 51.6235 62.9317C51.6515 62.2612 51.6654 61.5488 51.6654 60.8084C51.6654 60.3893 51.6655 59.9702 51.6515 59.5372C51.6515 59.2997 51.8332 59.1041 52.0709 59.1041C52.0709 59.1041 52.0709 59.1041 52.0849 59.1041C52.3226 59.1041 52.5184 59.2857 52.5184 59.5232C52.5323 59.9702 52.5323 60.3893 52.5323 60.8084C52.5323 61.5208 52.5184 62.1914 52.4904 62.8479C52.784 62.82 53.0776 62.806 53.3852 62.806C53.6229 62.806 53.8186 63.0016 53.8186 63.2251C53.8186 63.4626 53.6369 63.6581 53.3992 63.6581C52.2947 63.6721 51.1761 63.8258 50.0995 64.1051C50.0436 64.1191 50.0016 64.1331 49.9737 64.1331ZM51.9311 56.5198C51.7074 56.5198 51.5117 56.3382 51.4977 56.1147C51.4278 55.0251 51.3299 53.8796 51.2181 52.6922C51.1901 52.4547 51.3719 52.2452 51.6096 52.2173C51.8472 52.2033 52.057 52.3709 52.0849 52.6084C52.1968 53.7958 52.2946 54.9552 52.3645 56.0588C52.3785 56.2963 52.1968 56.5058 51.9591 56.5198C51.9451 56.5198 51.9311 56.5198 51.9311 56.5198ZM51.26 49.6609C51.0503 49.6609 50.8545 49.5072 50.8266 49.2837C50.6868 48.1941 50.5329 47.0626 50.3652 45.8892C50.3232 45.6517 50.491 45.4282 50.7287 45.4002C50.9524 45.3723 51.1761 45.526 51.2181 45.7635C51.3998 46.9508 51.5536 48.0824 51.6934 49.1859C51.7214 49.4234 51.5536 49.6329 51.3159 49.6609C51.3019 49.6609 51.288 49.6609 51.26 49.6609ZM50.2533 42.8578C50.0436 42.8578 49.8618 42.7042 49.8338 42.4946C49.7639 42.0476 49.6801 41.5866 49.5962 41.1117C49.4703 40.4411 49.3445 39.7706 49.2186 39.1141C49.1767 38.8766 49.3165 38.6531 49.5542 38.6112C49.7919 38.5692 50.0156 38.709 50.0576 38.9464C50.1974 39.603 50.3232 40.2735 50.4351 40.958C50.519 41.433 50.6028 41.894 50.6728 42.341C50.7147 42.5785 50.5609 42.802 50.3232 42.8299C50.2952 42.8439 50.2813 42.8578 50.2533 42.8578ZM48.8551 36.1107C48.6594 36.1107 48.4916 35.9849 48.4357 35.7894C48.156 34.6858 47.8345 33.5822 47.4989 32.5066C47.429 32.2831 47.5548 32.0316 47.7785 31.9618C48.0022 31.8919 48.2539 32.0176 48.3238 32.2412C48.6734 33.3308 48.9949 34.4483 49.2746 35.5659C49.3305 35.7894 49.1907 36.0269 48.967 36.0967C48.925 36.1107 48.8971 36.1107 48.8551 36.1107ZM46.7718 29.5591C46.6041 29.5591 46.4363 29.4613 46.3664 29.2797C45.9609 28.204 45.5135 27.1563 45.0381 26.1366C44.9403 25.927 45.0381 25.6616 45.2478 25.5638C45.4576 25.466 45.7232 25.5638 45.8211 25.7734C46.2965 26.8071 46.7439 27.8827 47.1633 28.9723C47.2472 29.1959 47.1354 29.4473 46.9117 29.5311C46.8697 29.559 46.8278 29.5591 46.7718 29.5591ZM43.8916 23.3288C43.7378 23.3288 43.598 23.2449 43.5141 23.1052C42.9688 22.1134 42.3816 21.1216 41.7664 20.1857C41.6406 19.9901 41.6965 19.7247 41.8922 19.585C42.088 19.4592 42.3536 19.5151 42.4934 19.7107C43.1226 20.6746 43.7238 21.6664 44.2831 22.6862C44.395 22.8957 44.3251 23.1611 44.1153 23.2729C44.0314 23.3148 43.9615 23.3288 43.8916 23.3288ZM40.1305 17.5734C40.0047 17.5734 39.8789 17.5175 39.795 17.4058C39.0959 16.5117 38.3688 15.6317 37.5998 14.7935C37.446 14.6119 37.4461 14.3465 37.6278 14.1789C37.8096 14.0112 38.0753 14.0252 38.243 14.2068C39.012 15.0589 39.767 15.953 40.4801 16.861C40.6199 17.0426 40.5919 17.3219 40.3962 17.4616C40.3123 17.5454 40.2144 17.5734 40.1305 17.5734ZM35.4886 12.5025C35.3768 12.5025 35.2789 12.4606 35.195 12.3908C34.3701 11.6225 33.4892 10.8821 32.5944 10.1836C32.4126 10.0439 32.3707 9.76454 32.5245 9.58294C32.6643 9.40134 32.944 9.35945 33.1257 9.51311C34.0345 10.2255 34.9294 10.9799 35.7822 11.7622C35.95 11.9298 35.964 12.1952 35.8102 12.3768C35.7263 12.4606 35.6005 12.5025 35.4886 12.5025ZM30.0637 8.28381C29.9798 8.28381 29.8959 8.25587 29.826 8.21396C28.8892 7.59931 27.8965 7.01259 26.8898 6.48176C26.6801 6.37 26.5963 6.10459 26.7081 5.89505C26.82 5.68551 27.0856 5.6017 27.2953 5.72742C28.316 6.2862 29.3227 6.87291 30.2874 7.50153C30.4832 7.62725 30.5391 7.89266 30.4133 8.1022C30.3434 8.21395 30.2035 8.28381 30.0637 8.28381ZM24.0096 5.015C23.9537 5.015 23.8978 5.00103 23.8418 4.97309C22.8072 4.5121 21.7446 4.09301 20.668 3.71584C20.4443 3.63202 20.3324 3.39455 20.4024 3.17104C20.4862 2.94753 20.7239 2.83577 20.9476 2.90562C22.0382 3.29676 23.1288 3.7298 24.1774 4.19079C24.4011 4.28858 24.499 4.54003 24.4011 4.76354C24.3312 4.9172 24.1634 5.015 24.0096 5.015ZM17.5081 2.71005C17.4662 2.71005 17.4382 2.71006 17.3963 2.69609C16.3057 2.40273 15.1872 2.1373 14.0686 1.89983C13.831 1.85792 13.6912 1.62044 13.7331 1.39693C13.775 1.15945 14.0127 1.01977 14.2364 1.06168C15.3689 1.29916 16.5155 1.56458 17.62 1.8719C17.8437 1.94175 17.9835 2.16524 17.9276 2.40272C17.8717 2.58432 17.7039 2.71005 17.5081 2.71005ZM10.755 1.3271C10.741 1.3271 10.713 1.3271 10.699 1.3271C9.56653 1.17344 8.42002 1.06168 7.2875 0.977868C7.04982 0.963899 6.86804 0.754357 6.88202 0.516879C6.896 0.279401 7.07779 0.0977877 7.34344 0.111757C8.48994 0.195573 9.65043 0.307327 10.7969 0.46099C11.0346 0.488928 11.2024 0.712446 11.1604 0.949924C11.1604 1.17343 10.9647 1.3271 10.755 1.3271ZM0.436473 1.00579C0.226748 1.00579 0.0310073 0.838175 0.00304383 0.628636C-0.0249196 0.391158 0.142846 0.181602 0.380535 0.153663C0.436462 0.153663 1.6948 0 3.82002 0C4.05771 0 4.26745 0.195588 4.26745 0.433066C4.26745 0.670545 4.0997 0.866111 3.86201 0.866111C1.73679 0.866111 0.478403 1.00579 0.464422 1.00579C0.464422 1.00579 0.450455 1.00579 0.436473 1.00579Z" fill="#151515"></path></svg>